<svg width="436" height="86" viewBox="0 0 436 86" fill="none" xmlns="http://www.w3.org/2000/svg">
<g clip-path="url(#clip0_23_45)">
<path d="M86.5004 1C97.8731 1 108.534 5.91104 115.707 14.4402C123.202 23.2924 126.11 34.7935 124.042 46.7477C122.427 55.8583 117.839 64.6459 111.054 71.4306C104.269 78.2799 95.5464 82.8672 86.5004 84.4185C84.2391 84.8062 81.9778 85 79.7803 85H12.5869C2.35241 85 -2.66831 77.3235 1.42835 67.941L18.0727 29.8832C19.0981 27.5389 20.7849 25.5446 22.9266 24.1444C25.0683 22.7443 27.5718 21.9991 30.1305 22.0002H86.565C91.7345 22.0002 96.5156 24.1323 99.7468 27.9442C103.171 32.0153 104.463 37.3786 103.494 43.1288C101.75 53.2094 93.0267 62.0608 83.2053 63.676C82.107 63.8706 81.0079 63.9998 79.9095 63.9998L31.8337 64.0411C29.1193 64.0441 27.299 61.2547 28.3929 58.771L37.6447 37.7655H49.082L43.5993 50.3763C42.9524 51.8646 44.0425 53.5286 45.666 53.5286L80.8013 53.5324C85.6477 53.5324 91.9802 47.6522 93.1431 41.5136C94.2415 35.6988 90.6872 32.5322 86.6169 32.5322H30.1689C29.6663 32.5315 29.1745 32.6779 28.7542 32.9535C28.334 33.229 28.0036 33.6216 27.8039 34.0828L11.9829 70.327C11.116 72.3126 12.5712 74.5341 14.7371 74.5341L79.9103 74.5326C81.5901 74.5326 83.2707 74.3388 84.8859 74.0803C99.1014 71.6898 111.313 59.4772 113.834 45.004C115.384 36.1511 113.252 27.7511 107.824 21.2902C102.655 15.1516 94.9011 11.5974 86.6304 11.5974H62.2893C61.7854 11.598 61.2926 11.7456 60.8714 12.0223C60.4502 12.2989 60.119 12.6925 59.9183 13.1548L58.3294 16.8315H46.8906L50.3216 8.95517C51.3433 6.61056 53.026 4.61439 55.1639 3.21068C57.3018 1.80697 59.8024 1.05653 62.3599 1.05109L86.5004 1Z" fill="white"/>
<path d="M172.655 69H153.593V17.4291H172.63C177.884 17.4291 182.409 18.4615 186.203 20.5264C190.013 22.5744 192.951 25.529 195.016 29.3901C197.081 33.2344 198.113 37.8342 198.113 43.1894C198.113 48.5613 197.081 53.1779 195.016 57.039C192.968 60.9001 190.038 63.8631 186.228 65.9279C182.417 67.976 177.893 69 172.655 69ZM166.058 58.3736H172.177C175.064 58.3736 177.507 57.8867 179.504 56.9131C181.519 55.9226 183.038 54.3194 184.062 52.1035C185.103 49.8708 185.623 46.8994 185.623 43.1894C185.623 39.4793 185.103 36.5248 184.062 34.3256C183.021 32.1097 181.485 30.5149 179.454 29.5412C177.44 28.5507 174.955 28.0555 172 28.0555H166.058V58.3736ZM219.925 69.7303C215.879 69.7303 212.388 68.9329 209.45 67.338C206.529 65.7265 204.279 63.435 202.701 60.4636C201.14 57.4754 200.359 53.9249 200.359 49.812C200.359 45.8166 201.148 42.3248 202.726 39.3367C204.304 36.3317 206.529 33.9983 209.399 32.3363C212.27 30.6576 215.653 29.8182 219.547 29.8182C222.301 29.8182 224.819 30.2463 227.102 31.1024C229.385 31.9586 231.357 33.226 233.019 34.9048C234.681 36.5835 235.974 38.6568 236.897 41.1245C237.82 43.5755 238.282 46.3874 238.282 49.5602V52.6323H204.665V45.4808H226.825C226.808 44.1714 226.497 43.0047 225.893 41.9807C225.289 40.9566 224.458 40.1592 223.4 39.5885C222.359 39.0009 221.159 38.7071 219.799 38.7071C218.423 38.7071 217.189 39.0177 216.098 39.6388C215.006 40.2432 214.142 41.0741 213.504 42.1318C212.866 43.1726 212.53 44.3561 212.497 45.6823V52.9596C212.497 54.5376 212.807 55.9226 213.428 57.1145C214.049 58.2896 214.931 59.2045 216.072 59.8593C217.214 60.514 218.574 60.8413 220.152 60.8413C221.243 60.8413 222.233 60.6902 223.123 60.3881C224.013 60.0859 224.777 59.641 225.415 59.0535C226.052 58.4659 226.531 57.744 226.85 56.8879L238.156 57.2152C237.686 59.7501 236.654 61.9577 235.059 63.8379C233.481 65.7013 231.408 67.1534 228.839 68.1942C226.271 69.2182 223.299 69.7303 219.925 69.7303ZM277.507 30.3218L264.236 69H250.135L236.89 30.3218H249.858L256.984 56.9634H257.387L264.538 30.3218H277.507ZM309.434 69H290.372V17.4291H309.409C314.663 17.4291 319.187 18.4615 322.981 20.5264C326.792 22.5744 329.73 25.529 331.795 29.3901C333.86 33.2344 334.892 37.8342 334.892 43.1894C334.892 48.5613 333.86 53.1779 331.795 57.039C329.747 60.9001 326.817 63.8631 323.006 65.9279C319.196 67.976 314.672 69 309.434 69ZM302.836 58.3736H308.955C311.843 58.3736 314.285 57.8867 316.283 56.9131C318.298 55.9226 319.817 54.3194 320.841 52.1035C321.882 49.8708 322.402 46.8994 322.402 43.1894C322.402 39.4793 321.882 36.5248 320.841 34.3256C319.8 32.1097 318.264 30.5149 316.233 29.5412C314.218 28.5507 311.734 28.0555 308.779 28.0555H302.836V58.3736ZM356.679 69.7303C352.616 69.7303 349.124 68.8993 346.203 67.2373C343.299 65.5586 341.058 63.2251 339.48 60.237C337.919 57.232 337.138 53.7486 337.138 49.7868C337.138 45.8082 337.919 42.3248 339.48 39.3367C341.058 36.3317 343.299 33.9983 346.203 32.3363C349.124 30.6576 352.616 29.8182 356.679 29.8182C360.741 29.8182 364.225 30.6576 367.129 32.3363C370.05 33.9983 372.291 36.3317 373.852 39.3367C375.43 42.3248 376.219 45.8082 376.219 49.7868C376.219 53.7486 375.43 57.232 373.852 60.237C372.291 63.2251 370.05 65.5586 367.129 67.2373C364.225 68.8993 360.741 69.7303 356.679 69.7303ZM356.754 60.4384C358.231 60.4384 359.482 59.9852 360.506 59.0786C361.53 58.1721 362.311 56.9131 362.848 55.3015C363.402 53.6899 363.679 51.8265 363.679 49.7113C363.679 47.5625 363.402 45.6823 362.848 44.0707C362.311 42.4591 361.53 41.2001 360.506 40.2935C359.482 39.387 358.231 38.9338 356.754 38.9338C355.227 38.9338 353.934 39.387 352.876 40.2935C351.835 41.2001 351.038 42.4591 350.484 44.0707C349.947 45.6823 349.678 47.5625 349.678 49.7113C349.678 51.8265 349.947 53.6899 350.484 55.3015C351.038 56.9131 351.835 58.1721 352.876 59.0786C353.934 59.9852 355.227 60.4384 356.754 60.4384ZM378.982 30.3218H391.295V70.6116C391.295 73.8012 390.64 76.3361 389.331 78.2163C388.038 80.0965 386.209 81.4479 383.842 82.2704C381.474 83.093 378.679 83.5043 375.456 83.5043C375.02 83.5043 374.608 83.4959 374.222 83.4791C373.836 83.4624 373.417 83.4456 372.963 83.4288V74.0866C373.265 74.1202 373.534 74.1453 373.769 74.1621C374.004 74.1789 374.239 74.1873 374.474 74.1873C376.17 74.1873 377.345 73.8683 378 73.2304C378.654 72.6093 378.982 71.6524 378.982 70.3598V30.3218ZM385.126 25.8144C383.397 25.8144 381.911 25.2436 380.669 24.1021C379.426 22.9437 378.805 21.5504 378.805 19.922C378.805 18.3104 379.426 16.9339 380.669 15.7923C381.911 14.634 383.397 14.0548 385.126 14.0548C386.872 14.0548 388.357 14.634 389.583 15.7923C390.825 16.9339 391.446 18.3104 391.446 19.922C391.446 21.5504 390.825 22.9437 389.583 24.1021C388.357 25.2436 386.872 25.8144 385.126 25.8144ZM413.642 69.7303C409.58 69.7303 406.088 68.8993 403.167 67.2373C400.263 65.5586 398.021 63.2251 396.443 60.237C394.882 57.232 394.102 53.7486 394.102 49.7868C394.102 45.8082 394.882 42.3248 396.443 39.3367C398.021 36.3317 400.263 33.9983 403.167 32.3363C406.088 30.6576 409.58 29.8182 413.642 29.8182C417.705 29.8182 421.188 30.6576 424.092 32.3363C427.013 33.9983 429.254 36.3317 430.816 39.3367C432.394 42.3248 433.183 45.8082 433.183 49.7868C433.183 53.7486 432.394 57.232 430.816 60.237C429.254 63.2251 427.013 65.5586 424.092 67.2373C421.188 68.8993 417.705 69.7303 413.642 69.7303ZM413.718 60.4384C415.195 60.4384 416.446 59.9852 417.47 59.0786C418.494 58.1721 419.274 56.9131 419.811 55.3015C420.365 53.6899 420.642 51.8265 420.642 49.7113C420.642 47.5625 420.365 45.6823 419.811 44.0707C419.274 42.4591 418.494 41.2001 417.47 40.2935C416.446 39.387 415.195 38.9338 413.718 38.9338C412.19 38.9338 410.897 39.387 409.84 40.2935C408.799 41.2001 408.002 42.4591 407.448 44.0707C406.91 45.6823 406.642 47.5625 406.642 49.7113C406.642 51.8265 406.91 53.6899 407.448 55.3015C408.002 56.9131 408.799 58.1721 409.84 59.0786C410.897 59.9852 412.19 60.4384 413.718 60.4384Z" fill="white"/>
</g>
<defs>
<clipPath id="clip0_23_45">
<rect width="435.69" height="86" fill="white"/>
</clipPath>
</defs>
</svg>
