<svg width="829" height="122" viewBox="0 0 829 122" fill="none" xmlns="http://www.w3.org/2000/svg">
<g clip-path="url(#clip0_23_36)">
<mask id="mask0_23_36" style="mask-type:alpha" maskUnits="userSpaceOnUse" x="11" y="10" width="103" height="103">
<g style="mix-blend-mode:exclusion">
<rect x="11.7703" y="10" width="102.009" height="102.009" rx="51.0047" fill="white"/>
</g>
</mask>
<g mask="url(#mask0_23_36)">
</g>
<g clip-path="url(#clip1_23_36)">
<path d="M-148 135.998C-137.152 136.657 -105.515 140.053 -82.9093 139.95C-60.3037 139.846 -30.3855 134.179 -12.3664 135.379C5.65269 136.58 9.43588 146.044 25.2053 147.153C40.9748 148.262 62.02 142.839 82.2502 142.033C102.48 141.227 124.821 145.273 146.587 142.314C168.352 139.356 190.679 125.332 212.846 124.279C235.012 123.227 268.463 134.045 279.586 135.998V-89.9429L-148 -89.9429L-148 135.998Z" fill="url(#paint0_linear_23_36)"/>
<path d="M-151.692 117.169C-135.435 119.016 -90.6088 130.099 -54.1491 128.247C-17.6894 126.395 31.735 106.346 67.0662 106.06C102.397 105.773 123.033 124.676 157.838 126.527C192.643 128.379 256.218 118.729 275.894 117.169V-89.9431L-151.692 -89.9431V117.169Z" fill="url(#paint1_linear_23_36)"/>
<path d="M-151.692 98.3412C-134.439 101.232 -73.3867 113.851 -48.172 115.687C-22.9572 117.523 -26.5499 112.287 -0.403179 109.356C25.7435 106.426 74.5382 97.609 108.708 98.1019C142.878 98.5948 176.752 112.274 204.617 112.314C232.481 112.354 264.015 100.67 275.894 98.3412V-89.9429L-151.692 -89.9429V98.3412Z" fill="url(#paint2_linear_23_36)"/>
<path d="M-151.692 79.5127C-132.825 78.7337 -77.2926 74.6393 -38.4927 74.8384C0.307223 75.0375 44.1587 79.3059 81.1075 80.7076C118.056 82.1093 150.736 83.4476 183.2 83.2485C215.665 83.0493 260.445 80.1354 275.894 79.5127V-89.9429L-151.692 -89.9429V79.5127Z" fill="url(#paint3_linear_23_36)"/>
<path d="M-151.692 60.6842C-141.8 59.3363 -113.606 53.0497 -92.3379 52.5967C-71.0702 52.1436 -51.6592 55.5772 -24.086 57.9661C3.48717 60.355 48.9068 67.6097 73.1011 66.93C97.2955 66.2503 99.4811 54.7371 121.08 53.888C142.679 53.039 176.893 60.7031 202.695 61.8358C228.498 62.9685 263.694 60.8761 275.894 60.6842V-89.9431L-151.692 -89.9431V60.6842Z" fill="url(#paint4_linear_23_36)"/>
<path d="M-151.692 41.8561C-138.206 40.6194 -89.8632 36.0948 -70.7762 34.4361C-51.6893 32.7773 -55.6132 28.3839 -37.1701 31.9038C-18.727 35.4237 20.7286 56.8118 39.8824 55.5556C59.0362 54.2994 59.0499 23.8213 77.7528 24.3667C96.4557 24.9122 126.446 53.8931 152.1 58.8283C177.754 63.7635 211.046 56.8066 231.678 53.9779C252.311 51.1492 268.525 43.8764 275.894 41.8561V-89.9428L-151.692 -89.9428V41.8561Z" fill="url(#paint5_linear_23_36)"/>
<path d="M-151.692 23.0275C-138.959 25.2651 -105.93 35.4153 -75.2958 36.4533C-44.6618 37.4912 0.244122 32.5899 32.1122 29.2551C63.9802 25.9204 89.7422 20.2106 115.912 16.4449C142.083 12.6792 162.47 5.56367 189.134 6.66077C215.797 7.75788 261.434 20.2997 275.894 23.0275V-89.9429L-151.692 -89.9429V23.0275Z" fill="url(#paint6_linear_23_36)"/>
<path d="M-151.692 4.19904C-137.858 7.12275 -90.0121 22.4802 -68.6882 21.7413C-47.3642 21.0024 -42.528 3.058 -23.7483 -0.234186C-4.96868 -3.52637 20.862 0.943162 43.9897 1.9882C67.1174 3.03323 88.2077 5.37346 115.018 6.03602C141.828 6.69859 178.038 6.26974 204.851 5.96358C231.664 5.65741 264.054 4.49313 275.894 4.19904V-89.943L-151.692 -89.943V4.19904Z" fill="url(#paint7_linear_23_36)"/>
</g>
<path d="M170.267 87L155.259 35.4295H169.033L176.814 69.2223H177.242L186.131 35.4295H197.362L206.25 69.2978H206.678L214.485 35.4295H228.233L213.251 87H201.239L191.948 55.7253H191.545L182.253 87H170.267ZM229.837 87V48.3221H242.151V87H229.837ZM236.007 43.8148C234.278 43.8148 232.792 43.244 231.55 42.1025C230.307 40.9441 229.686 39.5508 229.686 37.9224C229.686 36.3109 230.307 34.9343 231.55 33.7928C232.792 32.6344 234.278 32.0553 236.007 32.0553C237.752 32.0553 239.238 32.6344 240.464 33.7928C241.706 34.9343 242.327 36.3109 242.327 37.9224C242.327 39.5508 241.706 40.9441 240.464 42.1025C239.238 43.244 237.752 43.8148 236.007 43.8148ZM264.498 87.7302C260.418 87.7302 256.918 86.8909 253.997 85.2122C251.093 83.5334 248.86 81.2 247.299 78.2119C245.738 75.2069 244.957 71.732 244.957 67.787C244.957 63.8252 245.738 60.3502 247.299 57.3621C248.877 54.3572 251.118 52.0153 254.022 50.3366C256.943 48.6579 260.427 47.8185 264.472 47.8185C268.048 47.8185 271.162 48.4648 273.814 49.7575C276.484 51.0501 278.565 52.8799 280.059 55.2469C281.57 57.5971 282.368 60.3586 282.452 63.5314H270.944C270.709 61.5505 270.037 59.9977 268.929 58.8729C267.838 57.7482 266.411 57.1858 264.649 57.1858C263.222 57.1858 261.971 57.5887 260.897 58.3945C259.822 59.1835 258.983 60.3586 258.379 61.9198C257.791 63.4643 257.497 65.378 257.497 67.6611C257.497 69.9441 257.791 71.8747 258.379 73.4527C258.983 75.0139 259.822 76.1974 260.897 77.0032C261.971 77.7922 263.222 78.1867 264.649 78.1867C265.79 78.1867 266.797 77.9433 267.67 77.4564C268.56 76.9696 269.29 76.2562 269.861 75.3161C270.432 74.3592 270.793 73.2009 270.944 71.8411H282.452C282.334 75.0307 281.537 77.8174 280.059 80.2012C278.599 82.5849 276.542 84.4399 273.89 85.7661C271.254 87.0755 268.124 87.7302 264.498 87.7302ZM296.312 76.8521L296.363 62.1716H298.075L308.953 48.3221H322.903L306.737 68.1647H303.489L296.312 76.8521ZM285.208 87V35.4295H297.521V87H285.208ZM309.23 87L299.107 70.9346L307.216 62.1968L323.457 87H309.23ZM340.252 87.7302C336.206 87.7302 332.714 86.9329 329.776 85.3381C326.856 83.7265 324.606 81.435 323.028 78.4637C321.467 75.4755 320.686 71.925 320.686 67.8122C320.686 63.8168 321.475 60.325 323.053 57.3369C324.631 54.332 326.856 51.9986 329.726 50.3366C332.597 48.6579 335.979 47.8185 339.874 47.8185C342.627 47.8185 345.145 48.2466 347.428 49.1028C349.711 49.9589 351.684 51.2263 353.346 52.9051C355.008 54.5838 356.3 56.657 357.224 59.1247C358.147 61.5757 358.609 64.3876 358.609 67.5603V70.6324H324.992V63.481H347.151C347.135 62.1716 346.824 61.0049 346.22 59.9809C345.615 58.9569 344.784 58.1595 343.727 57.5887C342.686 57.0012 341.486 56.7074 340.126 56.7074C338.749 56.7074 337.515 57.0179 336.424 57.6391C335.333 58.2434 334.469 59.0744 333.831 60.132C333.193 61.1728 332.857 62.3563 332.823 63.6825V70.9598C332.823 72.5378 333.134 73.9227 333.755 75.1146C334.376 76.2897 335.258 77.2046 336.399 77.8593C337.541 78.514 338.9 78.8414 340.478 78.8414C341.57 78.8414 342.56 78.6903 343.45 78.3881C344.339 78.086 345.103 77.6411 345.741 77.0535C346.379 76.466 346.858 75.7441 347.176 74.888L358.483 75.2153C358.013 77.7502 356.98 79.9577 355.385 81.8379C353.807 83.7013 351.734 85.1534 349.166 86.1942C346.597 87.2182 343.626 87.7302 340.252 87.7302ZM375.479 87.554C372.625 87.554 370.031 86.8153 367.698 85.3381C365.364 83.8608 363.501 81.6449 362.108 78.6903C360.714 75.7357 360.018 72.0677 360.018 67.6863C360.018 63.1369 360.739 59.3933 362.183 56.4556C363.627 53.5178 365.515 51.3439 367.849 49.9337C370.199 48.5236 372.725 47.8185 375.428 47.8185C377.459 47.8185 379.197 48.1711 380.641 48.8761C382.084 49.5644 383.276 50.4541 384.216 51.5453C385.156 52.6365 385.87 53.7696 386.357 54.9447H386.609V35.4295H398.922V87H386.734V80.73H386.357C385.836 81.9219 385.098 83.0382 384.141 84.079C383.184 85.1198 381.984 85.9592 380.54 86.5971C379.113 87.235 377.426 87.554 375.479 87.554ZM379.759 77.9601C381.253 77.9601 382.529 77.5404 383.587 76.701C384.644 75.8449 385.459 74.6446 386.029 73.1001C386.6 71.5557 386.886 69.7427 386.886 67.6611C386.886 65.5459 386.6 63.7245 386.029 62.1968C385.475 60.6692 384.661 59.4941 383.587 58.6715C382.529 57.8489 381.253 57.4376 379.759 57.4376C378.232 57.4376 376.939 57.8573 375.881 58.6967C374.824 59.536 374.018 60.7195 373.464 62.2472C372.927 63.7748 372.658 65.5795 372.658 67.6611C372.658 69.7427 372.935 71.5557 373.489 73.1001C374.043 74.6446 374.841 75.8449 375.881 76.701C376.939 77.5404 378.232 77.9601 379.759 77.9601ZM403.164 87V35.4295H424.668C428.529 35.4295 431.761 35.9751 434.363 37.0663C436.982 38.1575 438.946 39.6851 440.255 41.6492C441.581 43.6133 442.244 45.888 442.244 48.4732C442.244 50.4373 441.833 52.1916 441.011 53.736C440.188 55.2637 439.055 56.5311 437.611 57.5384C436.167 58.5456 434.497 59.2507 432.6 59.6535V60.1572C434.682 60.2579 436.604 60.8203 438.367 61.8443C440.146 62.8683 441.573 64.2952 442.647 66.125C443.722 67.9381 444.259 70.0868 444.259 72.5713C444.259 75.3412 443.554 77.8174 442.144 79.9997C440.734 82.1653 438.694 83.8776 436.025 85.1366C433.356 86.3789 430.116 87 426.305 87H403.164ZM415.628 76.9528H423.334C426.036 76.9528 428.026 76.4408 429.301 75.4168C430.594 74.3928 431.24 72.9658 431.24 71.136C431.24 69.8098 430.93 68.6683 430.309 67.7114C429.688 66.7378 428.806 65.9907 427.665 65.4703C426.523 64.9331 425.155 64.6645 423.56 64.6645H415.628V76.9528ZM415.628 56.6318H422.528C423.888 56.6318 425.096 56.4052 426.154 55.952C427.211 55.4987 428.034 54.844 428.622 53.9878C429.226 53.1317 429.528 52.0993 429.528 50.8906C429.528 49.1615 428.915 47.8017 427.69 46.8113C426.464 45.8208 424.811 45.3256 422.729 45.3256H415.628V56.6318ZM457.61 87.6547C455.142 87.6547 452.951 87.2434 451.038 86.4208C449.141 85.5815 447.638 84.3224 446.53 82.6437C445.439 80.9482 444.893 78.8246 444.893 76.2729C444.893 74.1242 445.271 72.3111 446.027 70.8339C446.782 69.3566 447.823 68.1563 449.149 67.233C450.475 66.3097 452.003 65.613 453.732 65.143C455.461 64.6562 457.308 64.3288 459.272 64.1609C461.471 63.9595 463.242 63.7496 464.585 63.5314C465.928 63.2964 466.902 62.969 467.506 62.5494C468.127 62.1129 468.438 61.5001 468.438 60.7111V60.5852C468.438 59.2926 467.993 58.2938 467.103 57.5887C466.213 56.8836 465.013 56.5311 463.502 56.5311C461.874 56.5311 460.564 56.8836 459.574 57.5887C458.583 58.2938 457.954 59.2674 457.685 60.5097L446.329 60.1068C446.665 57.7566 447.529 55.6582 448.922 53.8116C450.333 51.9482 452.263 50.4877 454.714 49.4301C457.182 48.3557 460.145 47.8185 463.603 47.8185C466.071 47.8185 468.345 48.1123 470.427 48.6999C472.509 49.2706 474.322 50.11 475.866 51.2179C477.41 52.3091 478.602 53.6521 479.442 55.2469C480.298 56.8417 480.726 58.6631 480.726 60.7111V87H469.143V81.6113H468.841C468.152 82.9207 467.271 84.0287 466.197 84.9352C465.139 85.8417 463.888 86.5216 462.445 86.9748C461.018 87.4281 459.406 87.6547 457.61 87.6547ZM461.412 79.5968C462.738 79.5968 463.93 79.3282 464.988 78.791C466.062 78.2538 466.918 77.5152 467.556 76.5751C468.194 75.6182 468.513 74.5103 468.513 73.2512V69.5748C468.161 69.7595 467.733 69.9274 467.229 70.0784C466.742 70.2295 466.205 70.3722 465.617 70.5065C465.03 70.6408 464.425 70.7583 463.804 70.859C463.183 70.9598 462.587 71.0521 462.016 71.136C460.858 71.3207 459.868 71.6061 459.045 71.9922C458.239 72.3783 457.618 72.8819 457.182 73.503C456.762 74.1074 456.552 74.8292 456.552 75.6686C456.552 76.9444 457.005 77.9181 457.912 78.5896C458.835 79.2611 460.002 79.5968 461.412 79.5968ZM502.764 87.7302C498.685 87.7302 495.185 86.8909 492.264 85.2122C489.36 83.5334 487.127 81.2 485.566 78.2119C484.004 75.2069 483.224 71.732 483.224 67.787C483.224 63.8252 484.004 60.3502 485.566 57.3621C487.144 54.3572 489.385 52.0153 492.289 50.3366C495.21 48.6579 498.693 47.8185 502.739 47.8185C506.315 47.8185 509.429 48.4648 512.081 49.7575C514.75 51.0501 516.832 52.8799 518.326 55.2469C519.837 57.5971 520.634 60.3586 520.718 63.5314H509.211C508.976 61.5505 508.304 59.9977 507.196 58.8729C506.105 57.7482 504.678 57.1858 502.915 57.1858C501.488 57.1858 500.238 57.5887 499.163 58.3945C498.089 59.1835 497.25 60.3586 496.645 61.9198C496.058 63.4643 495.764 65.378 495.764 67.6611C495.764 69.9441 496.058 71.8747 496.645 73.4527C497.25 75.0139 498.089 76.1974 499.163 77.0032C500.238 77.7922 501.488 78.1867 502.915 78.1867C504.057 78.1867 505.064 77.9433 505.937 77.4564C506.827 76.9696 507.557 76.2562 508.128 75.3161C508.699 74.3592 509.059 73.2009 509.211 71.8411H520.718C520.601 75.0307 519.803 77.8174 518.326 80.2012C516.866 82.5849 514.809 84.4399 512.157 85.7661C509.521 87.0755 506.39 87.7302 502.764 87.7302ZM534.579 76.8521L534.629 62.1716H536.342L547.22 48.3221H561.17L545.004 68.1647H541.756L534.579 76.8521ZM523.474 87V35.4295H535.788V87H523.474ZM547.497 87L537.374 70.9346L545.482 62.1968L561.724 87H547.497ZM578.468 102.31C574.792 102.31 571.644 101.798 569.025 100.774C566.406 99.7499 564.35 98.3482 562.856 96.5687C561.362 94.7893 560.464 92.7748 560.162 90.5253L571.82 89.8706C572.039 90.6596 572.441 91.3479 573.029 91.9355C573.633 92.523 574.414 92.9763 575.371 93.2952C576.344 93.6142 577.486 93.7737 578.795 93.7737C580.86 93.7737 582.564 93.27 583.907 92.2628C585.267 91.2724 585.947 89.5349 585.947 87.0504V80.2515H585.519C585.032 81.4434 584.293 82.5094 583.303 83.4495C582.312 84.3896 581.078 85.1282 579.601 85.6654C578.141 86.2026 576.462 86.4712 574.565 86.4712C571.745 86.4712 569.16 85.8165 566.809 84.5071C564.476 83.1809 562.604 81.1329 561.194 78.363C559.801 75.5763 559.104 71.9922 559.104 67.6107C559.104 63.0949 559.826 59.3766 561.27 56.4556C562.713 53.5178 564.602 51.3439 566.935 49.9337C569.285 48.5236 571.812 47.8185 574.515 47.8185C576.546 47.8185 578.283 48.1711 579.727 48.8761C581.188 49.5644 582.388 50.4541 583.328 51.5453C584.268 52.6365 584.982 53.7696 585.468 54.9447H585.821V48.3221H598.084V87.1511C598.084 90.4246 597.261 93.1861 595.616 95.4356C593.971 97.6851 591.671 99.389 588.717 100.547C585.762 101.722 582.346 102.31 578.468 102.31ZM578.846 77.5068C580.34 77.5068 581.616 77.1123 582.673 76.3233C583.731 75.5343 584.545 74.4012 585.116 72.9239C585.687 71.4466 585.972 69.6755 585.972 67.6107C585.972 65.5123 585.687 63.7077 585.116 62.1968C584.562 60.6692 583.748 59.4941 582.673 58.6715C581.616 57.8489 580.34 57.4376 578.846 57.4376C577.318 57.4376 576.026 57.8573 574.968 58.6967C573.91 59.536 573.105 60.7195 572.551 62.2472C572.013 63.758 571.745 65.5459 571.745 67.6107C571.745 69.6755 572.022 71.4466 572.576 72.9239C573.13 74.4012 573.927 75.5343 574.968 76.3233C576.026 77.1123 577.318 77.5068 578.846 77.5068ZM602.389 87V48.3221H614.35V55.3728H614.752C615.458 52.8211 616.607 50.9242 618.202 49.6819C619.797 48.4229 621.652 47.7933 623.767 47.7933C624.338 47.7933 624.926 47.8353 625.53 47.9192C626.134 47.9864 626.697 48.0955 627.217 48.2466V58.9485C626.629 58.747 625.857 58.5876 624.9 58.47C623.96 58.3525 623.121 58.2938 622.382 58.2938C620.922 58.2938 619.604 58.6211 618.429 59.2758C617.271 59.9137 616.356 60.8119 615.684 61.9702C615.029 63.1117 614.702 64.4547 614.702 65.9991V87H602.389ZM644.735 87.7302C640.673 87.7302 637.181 86.8993 634.26 85.2373C631.356 83.5586 629.115 81.2252 627.537 78.237C625.976 75.2321 625.195 71.7488 625.195 67.787C625.195 63.8084 625.976 60.325 627.537 57.3369C629.115 54.332 631.356 51.9986 634.26 50.3366C637.181 48.6579 640.673 47.8185 644.735 47.8185C648.798 47.8185 652.281 48.6579 655.185 50.3366C658.106 51.9986 660.348 54.332 661.909 57.3369C663.487 60.325 664.276 63.8084 664.276 67.787C664.276 71.7488 663.487 75.2321 661.909 78.237C660.348 81.2252 658.106 83.5586 655.185 85.2373C652.281 86.8993 648.798 87.7302 644.735 87.7302ZM644.811 78.4385C646.288 78.4385 647.539 77.9852 648.563 77.0787C649.587 76.1722 650.367 74.9132 650.905 73.3016C651.459 71.69 651.736 69.8266 651.736 67.7114C651.736 65.5627 651.459 63.6825 650.905 62.0709C650.367 60.4593 649.587 59.2003 648.563 58.2938C647.539 57.3873 646.288 56.934 644.811 56.934C643.283 56.934 641.991 57.3873 640.933 58.2938C639.892 59.2003 639.095 60.4593 638.541 62.0709C638.004 63.6825 637.735 65.5627 637.735 67.7114C637.735 69.8266 638.004 71.69 638.541 73.3016C639.095 74.9132 639.892 76.1722 640.933 77.0787C641.991 77.9852 643.283 78.4385 644.811 78.4385ZM691.992 70.3051V48.3221H704.281V87H692.546V79.7983H692.143C691.287 82.1653 689.827 84.0454 687.762 85.4388C685.714 86.8153 683.238 87.5036 680.334 87.5036C677.698 87.5036 675.381 86.8993 673.384 85.6906C671.386 84.4819 669.833 82.7948 668.725 80.6292C667.617 78.4469 667.055 75.8952 667.038 72.9742V48.3221H679.352V70.5569C679.368 72.6553 679.922 74.3088 681.013 75.5175C682.105 76.7262 683.59 77.3305 685.47 77.3305C686.696 77.3305 687.796 77.0619 688.769 76.5247C689.76 75.9708 690.54 75.1734 691.111 74.1326C691.699 73.075 691.992 71.7991 691.992 70.3051ZM720.886 64.9415V87H708.573V48.3221H720.282V55.4232H720.71C721.566 53.0562 723.027 51.2012 725.091 49.8582C727.156 48.4984 729.616 47.8185 732.469 47.8185C735.189 47.8185 737.548 48.4313 739.545 49.6567C741.56 50.8654 743.121 52.5609 744.229 54.7433C745.354 56.9088 745.908 59.4437 745.891 62.3479V87H733.577V64.7653C733.594 62.6165 733.049 60.9378 731.941 59.7291C730.849 58.5204 729.33 57.9161 727.383 57.9161C726.09 57.9161 724.949 58.2014 723.958 58.7722C722.985 59.3262 722.229 60.1236 721.692 61.1644C721.172 62.2052 720.903 63.4643 720.886 64.9415ZM764.095 87.554C761.241 87.554 758.648 86.8153 756.314 85.3381C753.981 83.8608 752.118 81.6449 750.724 78.6903C749.331 75.7357 748.634 72.0677 748.634 67.6863C748.634 63.1369 749.356 59.3933 750.8 56.4556C752.244 53.5178 754.132 51.3439 756.466 49.9337C758.816 48.5236 761.342 47.8185 764.045 47.8185C766.076 47.8185 767.814 48.1711 769.257 48.8761C770.701 49.5644 771.893 50.4541 772.833 51.5453C773.773 52.6365 774.487 53.7696 774.973 54.9447H775.225V35.4295H787.539V87H775.351V80.73H774.973C774.453 81.9219 773.714 83.0382 772.758 84.079C771.801 85.1198 770.6 85.9592 769.157 86.5971C767.73 87.235 766.043 87.554 764.095 87.554ZM768.376 77.9601C769.87 77.9601 771.146 77.5404 772.204 76.701C773.261 75.8449 774.075 74.6446 774.646 73.1001C775.217 71.5557 775.502 69.7427 775.502 67.6611C775.502 65.5459 775.217 63.7245 774.646 62.1968C774.092 60.6692 773.278 59.4941 772.204 58.6715C771.146 57.8489 769.87 57.4376 768.376 57.4376C766.848 57.4376 765.556 57.8573 764.498 58.6967C763.441 59.536 762.635 60.7195 762.081 62.2472C761.544 63.7748 761.275 65.5795 761.275 67.6611C761.275 69.7427 761.552 71.5557 762.106 73.1001C762.66 74.6446 763.457 75.8449 764.498 76.701C765.556 77.5404 766.848 77.9601 768.376 77.9601ZM825.548 60.132L814.242 60.4342C814.124 59.6284 813.805 58.9149 813.285 58.2938C812.765 57.6559 812.085 57.1606 811.245 56.8081C810.423 56.4388 809.466 56.2541 808.375 56.2541C806.948 56.2541 805.731 56.5395 804.723 57.1103C803.733 57.681 803.246 58.4533 803.263 59.4269C803.246 60.1823 803.548 60.837 804.169 61.391C804.807 61.945 805.941 62.3899 807.569 62.7256L815.022 64.1357C818.884 64.8744 821.754 66.0999 823.634 67.8122C825.531 69.5245 826.488 71.7907 826.505 74.611C826.488 77.2634 825.699 79.5716 824.138 81.5357C822.594 83.4999 820.478 85.0275 817.792 86.1187C815.106 87.1931 812.034 87.7302 808.576 87.7302C803.053 87.7302 798.697 86.5971 795.507 84.3308C792.334 82.0478 790.521 78.9925 790.068 75.165L802.231 74.8628C802.499 76.2729 803.196 77.3473 804.321 78.086C805.445 78.8246 806.881 79.1939 808.627 79.1939C810.205 79.1939 811.489 78.9001 812.479 78.3126C813.47 77.725 813.973 76.9444 813.99 75.9708C813.973 75.0978 813.587 74.4012 812.832 73.8808C812.076 73.3436 810.893 72.9239 809.281 72.6217L802.533 71.3375C798.655 70.6324 795.767 69.3314 793.87 67.4344C791.974 65.5207 791.033 63.0865 791.05 60.132C791.033 57.5467 791.722 55.3392 793.115 53.5094C794.508 51.6628 796.489 50.2527 799.058 49.279C801.626 48.3054 804.656 47.8185 808.148 47.8185C813.386 47.8185 817.515 48.9181 820.537 51.1172C823.559 53.2996 825.229 56.3045 825.548 60.132Z" fill="white"/>
</g>
<defs>
<linearGradient id="paint0_linear_23_36" x1="-151.692" y1="123.577" x2="266.583" y2="198.963" gradientUnits="userSpaceOnUse">
<stop stop-color="#0301F7"/>
</linearGradient>
<linearGradient id="paint1_linear_23_36" x1="-151.692" y1="106.615" x2="264.228" y2="188.045" gradientUnits="userSpaceOnUse">
<stop stop-color="#451DFE"/>
<stop offset="0.0833333" stop-color="#201DFE"/>
</linearGradient>
<linearGradient id="paint2_linear_23_36" x1="-151.692" y1="95.4672" x2="262.334" y2="181.4" gradientUnits="userSpaceOnUse">
<stop stop-color="#6241FE"/>
<stop offset="0.166667" stop-color="#4241FE"/>
</linearGradient>
<linearGradient id="paint3_linear_23_36" x1="-151.692" y1="65.9471" x2="255.365" y2="166.432" gradientUnits="userSpaceOnUse">
<stop stop-color="#7F64FE"/>
<stop offset="0.25" stop-color="#6564FE"/>
</linearGradient>
<linearGradient id="paint4_linear_23_36" x1="-151.692" y1="51.283" x2="250.32" y2="160.827" gradientUnits="userSpaceOnUse">
<stop stop-color="#9C88FF"/>
<stop offset="0.333333" stop-color="#8888FF"/>
</linearGradient>
<linearGradient id="paint5_linear_23_36" x1="-151.692" y1="45.5009" x2="247.912" y2="159.038" gradientUnits="userSpaceOnUse">
<stop stop-color="#BAABFF"/>
<stop offset="0.416667" stop-color="#ACABFF"/>
</linearGradient>
<linearGradient id="paint6_linear_23_36" x1="-151.692" y1="23.941" x2="235.912" y2="154.917" gradientUnits="userSpaceOnUse">
<stop stop-color="#D7CEFF"/>
<stop offset="0.5" stop-color="#CFCEFF"/>
</linearGradient>
<linearGradient id="paint7_linear_23_36" x1="-151.692" y1="10.5961" x2="224.984" y2="154.774" gradientUnits="userSpaceOnUse">
<stop stop-color="#F4F2FF"/>
<stop offset="0.583333" stop-color="#F2F2FF"/>
</linearGradient>
<clipPath id="clip0_23_36">
<rect width="829" height="121.825" fill="white" transform="translate(0 0.175415)"/>
</clipPath>
<clipPath id="clip1_23_36">
<rect y="122" width="121.825" height="124" rx="60.9123" transform="rotate(-90 0 122)" fill="white"/>
</clipPath>
</defs>
</svg>
